<svg width="24" height="24" viewBox="0 0 24 24" fill="none" xmlns="http://www.w3.org/2000/svg">
<path d="M11.47 1.72007C11.6106 1.57962 11.8012 1.50073 12 1.50073C12.1988 1.50073 12.3894 1.57962 12.53 1.72007L15.53 4.72007C15.6625 4.86225 15.7346 5.05029 15.7312 5.2446C15.7277 5.4389 15.649 5.62428 15.5116 5.76169C15.3742 5.89911 15.1888 5.97782 14.9945 5.98125C14.8002 5.98468 14.6122 5.91255 14.47 5.78007L12.75 4.06007V7.50007H11.25V4.06007L9.53 5.78007C9.38783 5.91255 9.19978 5.98468 9.00548 5.98125C8.81118 5.97782 8.62579 5.89911 8.48838 5.76169C8.35097 5.62428 8.27225 5.4389 8.26882 5.2446C8.2654 5.05029 8.33752 4.86225 8.47 4.72007L11.47 1.72007ZM11.25 7.50007V15.0001C11.25 15.199 11.329 15.3897 11.4697 15.5304C11.6103 15.6711 11.8011 15.7501 12 15.7501C12.1989 15.7501 12.3897 15.6711 12.5303 15.5304C12.671 15.3897 12.75 15.199 12.75 15.0001V7.50007H16.5C17.2956 7.50007 18.0587 7.81614 18.6213 8.37875C19.1839 8.94136 19.5 9.70442 19.5 10.5001V19.5001C19.5 20.2957 19.1839 21.0588 18.6213 21.6214C18.0587 22.184 17.2956 22.5001 16.5 22.5001H7.5C6.70435 22.5001 5.94129 22.184 5.37868 21.6214C4.81607 21.0588 4.5 20.2957 4.5 19.5001V10.5001C4.5 9.70442 4.81607 8.94136 5.37868 8.37875C5.94129 7.81614 6.70435 7.50007 7.5 7.50007H11.25Z" fill="black"/>
</svg>
